<svg xmlns="http://www.w3.org/2000/svg" width="256" height="256" viewBox="0 0 100 100"><rect width="100" height="100" rx="20" fill="#6e82e7"></rect><path d="M35.14 50.73L35.14 60.06Q35.14 60.84 34.69 61.35Q34.24 61.87 33.34 62.34L33.34 62.34Q32.26 62.86 30.37 63.24Q28.48 63.63 26.54 63.63L26.54 63.63Q23.53 63.63 21.04 62.81Q18.55 62.00 16.74 60.32Q14.93 58.64 13.94 56.08Q12.96 53.53 12.96 50.04L12.96 50.04Q12.96 46.60 13.99 44.02Q15.02 41.44 16.80 39.74Q18.59 38.05 20.95 37.21Q23.32 36.37 25.98 36.37L25.98 36.37Q27.79 36.37 29.32 36.67Q30.84 36.97 31.92 37.47Q32.99 37.96 33.60 38.56Q34.20 39.16 34.20 39.77L34.20 39.77Q34.20 40.37 33.85 40.80Q33.51 41.23 33.04 41.44L33.04 41.44Q31.88 40.67 30.28 40.00Q28.69 39.34 26.20 39.34L26.20 39.34Q24.14 39.34 22.37 40.02Q20.61 40.71 19.32 42.05Q18.03 43.38 17.30 45.40Q16.57 47.42 16.57 50.04L16.57 50.04Q16.57 52.84 17.32 54.84Q18.07 56.84 19.43 58.13Q20.78 59.42 22.61 60.04Q24.44 60.66 26.59 60.66L26.59 60.66Q28.13 60.66 29.51 60.41Q30.89 60.15 31.66 59.76L31.66 59.76L31.66 51.85L25.17 51.85Q25.04 51.63 24.91 51.27Q24.78 50.90 24.78 50.47L24.78 50.47Q24.78 49.74 25.12 49.33Q25.47 48.92 26.11 48.92L26.11 48.92L33.29 48.92Q34.07 48.92 34.61 49.42Q35.14 49.91 35.14 50.73L35.14 50.73ZM60.30 43.51L60.30 43.51Q60.30 45.36 59.42 46.93Q58.54 48.50 56.47 49.36L56.47 49.36Q58.92 50.17 60.13 51.91Q61.33 53.66 61.33 55.85L61.33 55.85Q61.33 59.76 58.51 61.65Q55.70 63.55 50.49 63.55L50.49 63.55Q48.69 63.55 46.99 63.39Q45.29 63.24 43.74 62.81L43.74 62.81Q41.94 62.30 41.94 60.84L41.94 60.84L41.94 38.82Q41.94 37.57 43.36 37.19L43.36 37.19Q44.82 36.76 46.45 36.61Q48.09 36.45 50.02 36.45L50.02 36.45Q54.88 36.45 57.59 38.17Q60.30 39.89 60.30 43.51ZM51.23 50.90L45.38 50.90L45.38 60.19Q46.41 60.41 47.76 60.54Q49.12 60.66 50.49 60.66L50.49 60.66Q54.06 60.66 55.91 59.48Q57.76 58.30 57.76 55.76L57.76 55.76Q57.76 53.53 56.11 52.21Q54.45 50.90 51.23 50.90L51.23 50.90ZM45.38 39.72L45.38 48.06L51.23 48.06Q53.93 48.06 55.33 46.86Q56.73 45.66 56.73 43.59L56.73 43.59Q56.73 39.34 50.02 39.34L50.02 39.34Q48.52 39.34 47.42 39.44Q46.32 39.55 45.38 39.72L45.38 39.72ZM86.79 39.81L86.79 39.81Q86.79 40.41 86.42 40.84Q86.06 41.27 85.58 41.49L85.58 41.49Q84.46 40.71 82.96 40.02Q81.45 39.34 79.05 39.34L79.05 39.34Q77.07 39.34 75.39 40.02Q73.71 40.71 72.47 42.05Q71.22 43.38 70.51 45.40Q69.80 47.42 69.80 50.04L69.80 50.04Q69.80 52.71 70.49 54.69Q71.18 56.66 72.40 58.00Q73.63 59.33 75.35 60.00Q77.07 60.66 79.18 60.66L79.18 60.66Q81.41 60.66 83.07 60.04Q84.72 59.42 85.84 58.56L85.84 58.56Q86.27 58.73 86.66 59.18Q87.04 59.63 87.04 60.23L87.04 60.23Q87.04 61.14 86.01 61.87L86.01 61.87Q85.02 62.56 83.30 63.09Q81.58 63.63 78.92 63.63L78.92 63.63Q76.21 63.63 73.89 62.77Q71.56 61.91 69.87 60.21Q68.17 58.51 67.18 55.98Q66.19 53.44 66.19 50.04L66.19 50.04Q66.19 46.65 67.20 44.09Q68.21 41.53 69.93 39.81Q71.65 38.09 73.95 37.23Q76.25 36.37 78.79 36.37L78.79 36.37Q80.55 36.37 82.04 36.67Q83.52 36.97 84.57 37.47Q85.63 37.96 86.21 38.58Q86.79 39.21 86.79 39.81Z" fill="#fff"></path></svg>